<svg width="27" height="19" viewBox="0 0 27 19" fill="none" xmlns="http://www.w3.org/2000/svg">
<path d="M1.6875 1.58333C1.6875 0.708883 2.44302 0 3.375 0H23.625C24.557 0 25.3125 0.708883 25.3125 1.58333L1.6875 1.58333Z" fill="#001985"/>
<path d="M13.5 14.25C15.364 14.25 16.875 12.8322 16.875 11.0833C16.875 9.33443 15.364 7.91667 13.5 7.91667C11.636 7.91667 10.125 9.33443 10.125 11.0833C10.125 12.8322 11.636 14.25 13.5 14.25Z" fill="#CEA244"/>
<path d="M0 4.75C0 3.87555 0.75552 3.16667 1.6875 3.16667H25.3125C26.2445 3.16667 27 3.87555 27 4.75V17.4167C27 18.2911 26.2445 19 25.3125 19H1.6875C0.75552 19 0 18.2911 0 17.4167V4.75ZM5.0625 4.75C5.0625 6.4989 3.55146 7.91667 1.6875 7.91667V14.25C3.55146 14.25 5.0625 15.6678 5.0625 17.4167H21.9375C21.9375 15.6678 23.4485 14.25 25.3125 14.25V7.91667C23.4485 7.91667 21.9375 6.4989 21.9375 4.75H5.0625Z" fill="#001985"/>
</svg>
