<svg width="26" height="26" viewBox="0 0 26 26" fill="none" xmlns="http://www.w3.org/2000/svg">
<path d="M14.4037 25.471C12.8507 25.8592 11.4089 24.6844 11.304 23.1638C11.1861 21.455 10.9312 19.8882 10.6073 18.9536C10.405 18.37 9.82954 17.3092 8.91928 16.2919C8.01273 15.2789 6.8345 14.3765 5.45501 14.0002C4.36393 13.7026 3.25 12.7572 3.25 11.3756V4.87394C3.25 3.50174 4.35878 2.49518 5.60287 2.36326C7.34079 2.17896 8.14418 1.68854 8.96341 1.18844L9.04076 1.14125C9.48402 0.871126 9.98037 0.57369 10.6183 0.354023C11.2628 0.132101 12.0175 0 13 0H18.6875C20.2102 0 21.2858 0.77656 21.8304 1.7297C22.097 2.19617 22.2422 2.71479 22.2422 3.21191C22.2422 3.45949 22.2052 3.71911 22.1173 3.96669C22.4447 4.39292 22.7362 4.9049 22.9114 5.43057C23.0898 5.96554 23.1902 6.668 22.9167 7.29648C23.0291 7.50883 23.1132 7.73351 23.1758 7.95257C23.3012 8.39158 23.3594 8.87431 23.3594 9.34375C23.3594 9.81319 23.3012 10.2959 23.1758 10.7349C23.1197 10.9311 23.0464 11.1319 22.951 11.3242C23.5922 12.2527 23.6309 13.2757 23.3311 14.1408C22.9976 15.1029 22.2241 15.9276 21.3819 16.2083C20.0053 16.6672 18.4514 16.6566 17.2936 16.5513C17.0365 16.528 16.7949 16.4995 16.574 16.4693C17.3385 19.7158 16.8301 22.4713 16.4719 23.7973C16.2487 24.6236 15.5799 25.1769 14.8285 25.3648L14.4037 25.471ZM18.6875 1.62502H13C12.1701 1.62502 11.5975 1.7355 11.1474 1.89051C10.6907 2.04777 10.325 2.26162 9.88638 2.52891L9.82153 2.56846C8.91988 3.11854 7.8741 3.75654 5.77423 3.97922C5.23339 4.03657 4.875 4.45123 4.875 4.87396V11.3756C4.875 11.7889 5.24208 12.2578 5.88265 12.4325C7.66263 12.9181 9.09488 14.0513 10.1302 15.2083C11.1619 16.3612 11.8597 17.605 12.1427 18.4214C12.5369 19.5589 12.8039 21.2944 12.9251 23.052C12.9658 23.6407 13.5113 24.0191 14.0096 23.8945L14.4344 23.7883C14.6953 23.7231 14.8542 23.5547 14.9032 23.3735C15.2613 22.0479 15.7938 19.0757 14.6667 15.6945C14.5729 15.4131 14.6399 15.1031 14.8414 14.8855C15.0428 14.668 15.347 14.5775 15.6346 14.6493L15.6388 14.6503L15.661 14.6556C15.6818 14.6605 15.714 14.668 15.7567 14.6774C15.8423 14.6962 15.9698 14.7229 16.1313 14.7529C16.4551 14.8128 16.9122 14.885 17.4407 14.933C18.5174 15.0309 19.8072 15.0204 20.8681 14.6667C21.1532 14.5717 21.5985 14.1776 21.7957 13.6086C21.9688 13.1092 21.9352 12.5218 21.363 11.9495L20.7885 11.375L21.363 10.8005C21.4321 10.7314 21.5325 10.5714 21.6133 10.2885C21.691 10.0166 21.7344 9.68683 21.7344 9.34377C21.7344 9.00072 21.691 8.67095 21.6133 8.39902C21.5325 8.11611 21.4321 7.95619 21.363 7.88705L20.7885 7.31252L21.363 6.738C21.4394 6.66157 21.5388 6.4513 21.3698 5.94446C21.2111 5.46825 20.8782 4.96475 20.5505 4.63705L19.9759 4.06252L20.5505 3.488C20.559 3.47948 20.6172 3.40737 20.6172 3.21194C20.6172 3.02352 20.5592 2.78041 20.4196 2.53595C20.1517 2.06721 19.6023 1.62502 18.6875 1.62502Z" fill="#686868"/>
</svg>
