<svg width="55" height="55" viewBox="0 0 55 55" fill="none" xmlns="http://www.w3.org/2000/svg">
<g clip-path="url(#clip0_44_739)">
<path d="M50.9152 46.5991C52.0567 46.5991 52.9152 45.7499 52.9152 44.6206V36.8093H17.2451V46.5991H50.9152Z" fill="#CEA244"/>
<path d="M45.3019 46.5991C44.4434 45.1899 42.9245 44.2473 41.2075 44.2473C39.4906 44.2473 37.8773 45.1899 37.1132 46.5991C36.7358 47.2617 36.4434 48.1016 36.4434 48.9509C36.4434 51.5827 38.5377 53.6545 41.1981 53.6545C43.8585 53.6545 45.9529 51.5827 45.9529 48.9509C45.8585 48.1016 45.6698 47.355 45.283 46.5991H45.3019Z" fill="white"/>
<path d="M3.35815 46.5991C1.93361 46.5991 0.697754 45.4699 0.697754 43.9673V39.3571L2.40531 36.7253L9.06574 26.3755H17.245V46.6084H3.35815V46.5991Z" fill="white"/>
<path d="M14.3866 46.5991C13.5281 45.1899 12.0093 44.2473 10.2923 44.2473C8.48093 44.2473 6.96205 45.1899 6.19789 46.5991C5.82053 47.2617 5.52808 48.1016 5.52808 48.9509C5.52808 51.5827 7.62243 53.6545 10.2828 53.6545C12.9432 53.6545 15.0376 51.5827 15.0376 48.9509C14.9432 48.1016 14.7546 47.355 14.3678 46.5991H14.3866Z" fill="white"/>
<path d="M41.1131 47.2524C42.0659 47.2524 42.9244 48.0083 42.9244 49.0442C42.9244 49.9868 42.1603 50.8361 41.1131 50.8361C40.0659 50.8361 39.3018 50.0801 39.3018 49.0442C39.3961 48.0083 40.1603 47.2524 41.1131 47.2524Z" fill="#CEA244"/>
<path d="M10.2073 47.2524C11.1602 47.2524 12.0187 48.0083 12.0187 49.0442C12.0187 49.9868 11.2545 50.8361 10.2073 50.8361C9.16015 50.8361 8.396 50.0801 8.396 49.0442C8.49034 48.0083 9.25449 47.2524 10.2073 47.2524Z" fill="#3F4751"/>
<path d="M48.1511 5.66675C49.4813 5.66675 50.5284 6.70266 50.5284 8.01854C50.5284 9.33442 49.4813 10.3703 48.1511 10.3703C46.8209 10.3703 45.7737 9.33442 45.7737 8.01854C45.7737 6.70266 46.8209 5.66675 48.1511 5.66675Z" fill="#CEA244"/>
<path d="M5.92429 12.7221C7.53751 12.7221 8.87714 14.038 8.87714 15.6432C8.87714 17.2484 7.54694 18.5549 5.92429 18.5549C4.30163 18.5549 2.97144 17.239 2.97144 15.6432C2.97144 14.0473 4.30163 12.7221 5.92429 12.7221Z" fill="#CEA244"/>
<path d="M52.9152 33.3282H17.2451V36.9026H52.9152V33.3282Z" fill="white"/>
<path d="M49.6793 13.1047C51.4906 13.1047 52.9152 14.5139 52.9152 16.3058V33.2443H17.2451V16.3058C17.2451 14.5139 18.6697 13.1047 20.481 13.1047H49.6793Z" fill="#CEA244"/>
<path d="M30.5564 7.45856H41.5942L42.6414 13.198L44.6414 24.5837C44.9244 26.0862 43.7829 27.4955 42.1697 27.4955H27.33C25.8111 27.4955 24.5752 26.0862 24.8582 24.5837L26.8583 13.198L27.9054 7.45856H30.5658H30.5564Z" fill="white"/>
<path d="M53.8585 12.0688C54.3326 12.0688 54.717 11.6886 54.717 11.2196C54.717 10.7505 54.3326 10.3703 53.8585 10.3703C53.3844 10.3703 53 10.7505 53 11.2196C53 11.6886 53.3844 12.0688 53.8585 12.0688Z" fill="#001985"/>
<path d="M43.6886 2.755C44.1603 2.755 44.5471 3.13764 44.5471 3.60426C44.5471 4.07089 44.1603 4.45352 43.6886 4.45352C43.2169 4.45352 42.8301 4.07089 42.8301 3.60426C42.8301 3.13764 43.2169 2.755 43.6886 2.755Z" fill="#001985"/>
<path d="M34.4623 39.1611C34.7736 39.1611 35.0378 39.413 35.0378 39.721C35.0378 40.029 34.783 40.2903 34.4623 40.2903C34.1415 40.2903 33.8962 40.0383 33.8962 39.721C33.8962 39.4037 34.151 39.1611 34.4623 39.1611Z" fill="#001985"/>
<path d="M32.7452 39.1611C33.0566 39.1611 33.3113 39.413 33.3113 39.721C33.3113 40.029 33.0566 40.2903 32.7452 40.2903C32.4339 40.2903 32.1792 40.0383 32.1792 39.721C32.1792 39.4037 32.4339 39.1611 32.7452 39.1611Z" fill="#001985"/>
<path d="M18.764 2.755C19.2357 2.755 19.6225 3.13764 19.6225 3.60426C19.6225 4.07089 19.2357 4.45352 18.764 4.45352C18.2923 4.45352 17.9055 4.07089 17.9055 3.60426C17.9055 3.13764 18.2923 2.755 18.764 2.755Z" fill="#001985"/>
<path d="M13.4432 12.1622C13.9149 12.1622 14.3017 12.5448 14.3017 13.0114C14.3017 13.4781 13.9149 13.8607 13.4432 13.8607C12.9715 13.8607 12.5847 13.4781 12.5847 13.0114C12.5847 12.5448 12.9715 12.1622 13.4432 12.1622Z" fill="#001985"/>
<path d="M3.26377 23.3611C3.73547 23.3611 4.12227 23.7438 4.12227 24.2104C4.12227 24.677 3.73547 25.0597 3.26377 25.0597C2.79207 25.0597 2.40527 24.677 2.40527 24.2104C2.40527 23.7438 2.79207 23.3611 3.26377 23.3611Z" fill="#001985"/>
<path d="M37.0283 47.2523H17.2452C16.9621 47.2523 16.6697 46.9724 16.6697 46.6831C16.6697 46.3938 16.9527 46.1231 17.2452 46.1231H37.0283C37.3113 46.1231 37.6038 46.4031 37.6038 46.6831C37.6038 46.963 37.4151 47.2523 37.0283 47.2523Z" fill="#001985"/>
<path d="M50.9151 47.2523H45.2076C44.9245 47.2523 44.6321 46.9724 44.6321 46.6831C44.6321 46.3938 44.9151 46.1231 45.2076 46.1231H50.9151C51.6793 46.1231 52.3397 45.4605 52.3397 44.7139V36.8093C52.3397 36.5293 52.6227 36.24 52.9152 36.24C53.2076 36.24 53.4812 36.52 53.4812 36.8093V44.7139C53.4812 46.0298 52.3397 47.2523 50.9151 47.2523Z" fill="#001985"/>
<path d="M17.2452 47.2523H14.3961C14.1131 47.2523 13.8301 46.9724 13.8301 46.6831C13.8301 46.3938 14.1131 46.1231 14.3961 46.1231H16.6792V36.8093C16.6792 36.5293 16.9622 36.24 17.2546 36.24C17.5471 36.24 17.8207 36.52 17.8207 36.8093V46.5991C17.8207 46.9724 17.632 47.2617 17.2546 47.2617L17.2452 47.2523Z" fill="#001985"/>
<path d="M6.11292 47.2524H3.35819C1.54685 47.2524 0.122314 45.8432 0.122314 44.0513V39.4411C0.122314 39.3477 0.122314 39.2544 0.216655 39.1611L8.58464 26.0862C8.67898 25.8996 8.86766 25.8063 9.05634 25.8063H17.2356C17.5187 25.8063 17.8017 26.0862 17.8017 26.3662C17.8017 26.6462 17.5187 26.9262 17.2356 26.9262H9.33936L1.26383 39.5437V43.9673C1.26383 45.0966 2.21667 46.0391 3.35819 46.0391H6.11292C6.39594 46.0391 6.6884 46.3191 6.6884 46.5991C6.6884 46.8791 6.49972 47.2617 6.11292 47.2617V47.2524Z" fill="#001985"/>
<path d="M10.9621 37.2852H2.4054C2.12238 37.2852 1.83936 37.0053 1.83936 36.7253C1.83936 36.4453 2.12238 36.156 2.4054 36.156H10.9621C11.2451 36.156 11.5375 36.436 11.5375 36.7253C11.6319 37.0053 11.3489 37.2852 10.9621 37.2852Z" fill="#001985"/>
<path d="M11.4432 40.6729H10.2073C9.92429 40.6729 9.63184 40.393 9.63184 40.1037C9.63184 39.8143 9.91486 39.5437 10.2073 39.5437H11.4432C11.7262 39.5437 12.0186 39.8237 12.0186 40.1037C12.0186 40.3836 11.7356 40.6729 11.4432 40.6729Z" fill="#001985"/>
<path d="M41.1132 54.3171C38.1603 54.3171 35.783 51.9653 35.783 49.0442C35.783 48.1017 36.066 47.1591 36.5471 46.4125C37.5 44.8166 39.3019 43.7807 41.2075 43.7807C43.1132 43.7807 44.9151 44.8166 45.8679 46.4125C46.3396 47.2617 46.6321 48.1017 46.6321 49.0442C46.5378 51.872 44.066 54.3171 41.1132 54.3171ZM41.1132 44.9006C39.5943 44.9006 38.2641 45.6565 37.5 46.9724C37.1226 47.635 36.9339 48.2883 36.9339 49.0442C36.9339 51.3027 38.8396 53.1879 41.1226 53.1879C43.4057 53.1879 45.3113 51.3027 45.3113 49.0442C45.3113 48.2883 45.1226 47.635 44.7453 46.9724C43.9811 45.6565 42.6509 44.9006 41.1321 44.9006H41.1132Z" fill="#001985"/>
<path d="M10.2072 54.3171C7.25433 54.3171 4.87695 51.9653 4.87695 49.0442C4.87695 48.1017 5.15997 47.1591 5.64111 46.4125C6.59395 44.8166 8.39585 43.7807 10.3015 43.7807C12.2072 43.7807 13.9148 44.8166 14.9619 46.4125C15.4336 47.2617 15.7261 48.1017 15.7261 49.0442C15.6317 51.872 13.16 54.3171 10.2072 54.3171ZM6.59395 46.9724C6.21659 47.635 6.0279 48.2883 6.0279 49.0442C6.0279 51.3027 7.93358 53.1879 10.2166 53.1879C12.4996 53.1879 14.4053 51.3027 14.4053 49.0442C14.4053 48.2883 14.2166 47.635 13.8393 46.9724C13.0751 45.7499 11.7449 44.9006 10.226 44.9006C8.80151 44.9006 7.37697 45.6565 6.61281 46.9724H6.59395Z" fill="#001985"/>
<path d="M10.2072 51.3027C8.87701 51.3027 7.82983 50.2668 7.82983 48.9509C7.82983 47.635 8.87701 46.5991 10.2072 46.5991C11.5374 46.5991 12.5846 47.635 12.5846 48.9509C12.5846 50.2668 11.5374 51.3027 10.2072 51.3027ZM10.2072 47.8217C9.53739 47.8217 8.97135 48.391 8.97135 49.0442C8.97135 49.6975 9.53739 50.2668 10.2072 50.2668C10.877 50.2668 11.4431 49.7068 11.4431 49.0442C11.4431 48.2883 10.877 47.8217 10.2072 47.8217Z" fill="#001985"/>
<path d="M41.1132 51.3027C39.783 51.3027 38.7358 50.2668 38.7358 48.9509C38.7358 47.635 39.783 46.5991 41.1132 46.5991C42.4434 46.5991 43.4906 47.635 43.4906 48.9509C43.4906 50.2668 42.4434 51.3027 41.1132 51.3027ZM41.1132 47.8217C40.4434 47.8217 39.8774 48.391 39.8774 49.0442C39.8774 49.6975 40.4434 50.2668 41.1132 50.2668C41.783 50.2668 42.3491 49.7068 42.3491 49.0442C42.3491 48.2883 41.783 47.8217 41.1132 47.8217Z" fill="#001985"/>
<path d="M52.9151 40.3836H36.3678C36.0848 40.3836 35.8018 40.1037 35.8018 39.8237C35.8018 39.5437 36.0848 39.2544 36.3678 39.2544H52.9151C53.1981 39.2544 53.4811 39.5344 53.4811 39.8237C53.4811 40.113 53.2924 40.3836 52.9151 40.3836Z" fill="#001985"/>
<path d="M51.868 54.3171H1.93363C1.65061 54.3171 1.35815 54.0371 1.35815 53.7478C1.35815 53.4585 1.64118 53.1879 1.93363 53.1879H51.868C52.151 53.1879 52.434 53.4678 52.434 53.7478C52.434 54.0278 52.151 54.3171 51.868 54.3171Z" fill="#001985"/>
<path d="M52.9152 37.3786H17.2452C16.9621 37.3786 16.6697 37.0986 16.6697 36.8186V16.3058C16.6697 14.234 18.3867 12.5448 20.4716 12.5448H26.9433C27.2264 12.5448 27.5094 12.8248 27.5094 13.1048C27.5094 13.3847 27.2264 13.6647 26.9433 13.6647H20.4716C19.0471 13.6647 17.8112 14.8873 17.8112 16.2965V36.1467H52.2454V16.2965C52.2454 14.8873 51.0095 13.6647 49.585 13.6647H42.6416C42.3585 13.6647 42.0755 13.3847 42.0755 13.1048C42.0755 12.8248 42.3585 12.5448 42.6416 12.5448H49.6793C51.7737 12.5448 53.4813 14.234 53.4813 16.3058V36.8186C53.4813 37.0986 53.2926 37.3786 52.9152 37.3786Z" fill="#001985"/>
<path d="M38.9339 12.1621C38.6508 12.1621 38.3678 11.8822 38.3678 11.5929V5.66672C38.3678 4.72414 37.9905 3.87488 37.3207 3.12828C36.6508 2.46567 35.7074 2.09237 34.7546 2.09237C32.7546 2.09237 31.1414 3.68823 31.1414 5.66672V11.5929C31.1414 11.8728 30.8583 12.1621 30.5753 12.1621C30.2923 12.1621 30.0093 11.8822 30.0093 11.5929V5.66672C30.0093 3.03495 32.1036 0.963135 34.764 0.963135C35.9999 0.963135 37.2357 1.42976 38.0942 2.37234C38.9527 3.2216 39.5188 4.44416 39.5188 5.66672V11.5929C39.5188 11.8728 39.2358 12.1621 38.9433 12.1621H38.9339Z" fill="#001985"/>
<path d="M41.0189 22.6986H28.5565C28.2735 22.6986 27.9905 22.4186 27.9905 22.1293C27.9905 21.84 28.2735 21.5693 28.5565 21.5693H41.0189C41.3019 21.5693 41.5849 21.8493 41.5849 22.1293C41.5849 22.4093 41.3962 22.6986 41.0189 22.6986Z" fill="#001985"/>
<path d="M41.0189 20.3468H28.5565C28.2735 20.3468 27.9905 20.0668 27.9905 19.7775C27.9905 19.4882 28.2735 19.2175 28.5565 19.2175H41.0189C41.3019 19.2175 41.5849 19.4975 41.5849 19.7775C41.5849 20.0575 41.3962 20.3468 41.0189 20.3468Z" fill="#001985"/>
<path d="M42.2547 27.9714H27.3207C26.3678 27.9714 25.5093 27.5981 24.9433 26.8422C24.3678 26.1796 24.0848 25.2463 24.2735 24.3971L27.3207 7.27192C27.415 6.99195 27.6037 6.8053 27.8867 6.8053H41.5849C41.8679 6.8053 42.1604 6.99195 42.1604 7.27192L45.2076 24.3971C45.3963 25.2463 45.1132 26.1889 44.5378 26.8422C43.9717 27.5981 43.1132 27.9714 42.2547 27.9714ZM28.4622 8.01852L25.5093 24.5837C25.415 25.1437 25.6037 25.713 25.8867 26.0863C26.264 26.5529 26.7452 26.7489 27.3112 26.7489H42.1509C42.717 26.7489 43.1981 26.4689 43.5755 26.0863C43.9528 25.6196 44.0472 25.1437 43.9528 24.5837L41 7.9252H28.4433V8.01852H28.4622Z" fill="#001985"/>
<path d="M39.8773 12.1621H38.066C37.7829 12.1621 37.4905 11.8822 37.4905 11.5928C37.4905 11.3035 37.7735 11.0329 38.066 11.0329H39.8773C40.1603 11.0329 40.4433 11.3129 40.4433 11.5928C40.4433 11.8728 40.1603 12.1621 39.8773 12.1621Z" fill="#001985"/>
<path d="M31.5092 12.1621H29.6979C29.4149 12.1621 29.1318 11.8822 29.1318 11.5928C29.1318 11.3035 29.4149 11.0329 29.6979 11.0329H31.5092C31.7922 11.0329 32.0753 11.3129 32.0753 11.5928C32.0753 11.8728 31.8866 12.1621 31.5092 12.1621Z" fill="#001985"/>
<path d="M5.92427 19.2175C3.92425 19.2175 2.31104 17.6217 2.31104 15.6432C2.31104 13.6647 3.92425 12.0688 5.92427 12.0688C7.92428 12.0688 9.5375 13.6647 9.5375 15.6432C9.5375 17.6217 7.92428 19.2175 5.92427 19.2175ZM5.92427 13.2914C4.59407 13.2914 3.54689 14.3273 3.54689 15.6432C3.54689 16.9591 4.59407 17.995 5.92427 17.995C7.25447 17.995 8.30164 16.9591 8.30164 15.6432C8.30164 14.3273 7.25447 13.2914 5.92427 13.2914Z" fill="#001985"/>
<path d="M48.1509 10.9396C46.5376 10.9396 45.198 9.62369 45.198 8.02783C45.198 6.43197 46.5282 5.11609 48.1509 5.11609C49.7735 5.11609 51.1037 6.43197 51.1037 8.02783C51.1037 9.62369 49.7735 10.9396 48.1509 10.9396ZM48.1509 6.23599C47.198 6.23599 46.3395 6.99192 46.3395 8.02783C46.3395 8.97041 47.1037 9.81967 48.1509 9.81967C49.1037 9.81967 49.9622 9.06374 49.9622 8.02783C49.9622 6.99192 49.1037 6.23599 48.1509 6.23599Z" fill="#001985"/>
<path d="M52.9152 33.8976H17.2452C16.9621 33.8976 16.6697 33.6176 16.6697 33.3376C16.6697 33.0576 16.9527 32.7776 17.2452 32.7776H52.9152C53.1982 32.7776 53.4813 33.0576 53.4813 33.3376C53.4813 33.6176 53.2926 33.8976 52.9152 33.8976Z" fill="#001985"/>
</g>
<defs>
<clipPath id="clip0_44_739">
<rect width="54.5947" height="53.3539" fill="white" transform="translate(0.122314 0.963135)"/>
</clipPath>
</defs>
</svg>
