<svg width="61" height="64" viewBox="0 0 61 64" fill="none" xmlns="http://www.w3.org/2000/svg">
<g clip-path="url(#clip0_44_828)">
<path d="M55.3702 8.61206C57.5466 8.61206 59.32 10.3664 59.32 12.5194C59.32 14.6724 57.5581 16.4267 55.3702 16.4267C53.1823 16.4267 51.4204 14.6838 51.4204 12.5194C51.4204 10.355 53.1823 8.61206 55.3702 8.61206Z" fill="#CEA244"/>
<path d="M4.86332 16.5406C6.487 16.5406 7.76521 17.8051 7.76521 19.4113C7.76521 21.0175 6.487 22.2819 4.86332 22.2819C3.23964 22.2819 1.96143 21.0175 1.96143 19.4113C1.96143 17.8051 3.23964 16.5406 4.86332 16.5406Z" fill="white"/>
<path d="M15.4345 57.425L13.1084 62.5967L1.61597 57.5389L3.93057 52.2532L15.4345 57.425Z" fill="#CEA244"/>
<path d="M58.272 49.5078C58.8508 49.5078 59.3199 49.0437 59.3199 48.4712C59.3199 47.8987 58.8508 47.4346 58.272 47.4346C57.6933 47.4346 57.2241 47.8987 57.2241 48.4712C57.2241 49.0437 57.6933 49.5078 58.272 49.5078Z" fill="#001985"/>
<path d="M53.1592 26.531C53.735 26.531 54.2071 26.9981 54.2071 27.5676C54.2071 28.1372 53.735 28.6043 53.1592 28.6043C52.5835 28.6043 52.1113 28.1372 52.1113 27.5676C52.1113 26.9981 52.5835 26.531 53.1592 26.531Z" fill="#001985"/>
<path d="M50.9598 0C51.5355 0 52.0077 0.467055 52.0077 1.03663C52.0077 1.60621 51.5355 2.07327 50.9598 2.07327C50.384 2.07327 49.9119 1.60621 49.9119 1.03663C49.9119 0.467055 50.384 0 50.9598 0Z" fill="#001985"/>
<path d="M46.6644 55.2492C47.2401 55.2492 47.7123 55.7163 47.7123 56.2858C47.7123 56.8554 47.2401 57.3225 46.6644 57.3225C46.0886 57.3225 45.6165 56.8554 45.6165 56.2858C45.6165 55.7163 46.0886 55.2492 46.6644 55.2492Z" fill="#001985"/>
<path d="M44.1079 32.728C44.4879 32.728 44.8104 33.0356 44.8104 33.4115C44.8104 33.7874 44.4994 34.1064 44.1079 34.1064C43.7164 34.1064 43.417 33.7988 43.417 33.4115C43.417 33.0242 43.7279 32.728 44.1079 32.728Z" fill="#001985"/>
<path d="M23.4378 0C24.0136 0 24.4857 0.467055 24.4857 1.03663C24.4857 1.60621 24.0136 2.07327 23.4378 2.07327C22.862 2.07327 22.3899 1.60621 22.3899 1.03663C22.3899 0.467055 22.862 0 23.4378 0Z" fill="#001985"/>
<path d="M5.20879 30.2105C5.78457 30.2105 6.2567 30.6776 6.2567 31.2471C6.2567 31.8167 5.78457 32.2838 5.20879 32.2838C4.63302 32.2838 4.16089 31.8167 4.16089 31.2471C4.16089 30.6776 4.63302 30.2105 5.20879 30.2105Z" fill="#001985"/>
<path d="M2.30694 6.43622C2.88271 6.43622 3.35484 6.90327 3.35484 7.47285C3.35484 8.04243 2.88271 8.50949 2.30694 8.50949C1.73117 8.50949 1.25903 8.04243 1.25903 7.47285C1.25903 6.90327 1.73117 6.43622 2.30694 6.43622Z" fill="#001985"/>
<path d="M1.61602 44.45C2.19476 44.45 2.66393 43.9859 2.66393 43.4133C2.66393 42.8408 2.19476 42.3767 1.61602 42.3767C1.03728 42.3767 0.568115 42.8408 0.568115 43.4133C0.568115 43.9859 1.03728 44.45 1.61602 44.45Z" fill="#001985"/>
<path d="M15.4345 58.1198C15.3193 58.1198 15.2042 58.1198 15.089 58.0059L3.59662 52.8341C3.25115 52.7202 3.02084 52.2646 3.25115 51.9114C3.36631 51.5697 3.82693 51.3418 4.1839 51.5697L15.6763 56.7415C16.0218 56.8554 16.2521 57.311 16.0218 57.6642C16.0218 58.0059 15.6763 58.1198 15.446 58.1198H15.4345Z" fill="#001985"/>
<path d="M13.1084 63.2803C12.9932 63.2803 12.8781 63.2803 12.7629 63.1663L1.25897 58.1199C0.913507 58.006 0.683198 57.5503 0.913507 57.1971L4.86331 48.4712C7.53489 42.3881 13.6841 38.4808 20.4207 38.4808C22.7468 38.4808 25.0614 38.9364 27.2724 39.9731L28.4354 40.4287C30.5197 41.3515 32.8458 41.8071 35.0568 41.8071C37.3829 41.8071 39.6975 41.3515 41.7933 40.3148L47.8274 37.672C48.5299 37.3302 49.2208 37.2163 49.9117 37.2163C52.5833 37.2163 54.7943 39.4035 54.7943 42.035C54.7943 42.7298 54.6791 43.4133 54.3337 43.9829C53.873 45.0195 52.9403 45.9309 51.8924 46.3979L37.2678 52.9481C34.9417 53.9847 32.3967 54.5543 29.8403 54.5543C27.2839 54.5543 24.8426 54.0986 22.528 53.062C21.9522 52.8342 21.3649 52.7203 20.7892 52.7203C19.1655 52.7203 17.657 53.643 16.9545 55.1353L13.592 62.7107C13.4769 62.9385 13.3617 63.0524 13.2465 63.0524C13.3617 63.2803 13.2465 63.2803 13.1314 63.2803H13.1084ZM2.53719 57.0832L12.7514 61.5601L15.8836 54.6682C16.8163 52.7203 18.7855 51.3419 20.9964 51.3419C21.814 51.3419 22.505 51.4558 23.3226 51.7975C25.4184 52.7203 27.733 53.1759 29.9439 53.1759C32.2701 53.1759 34.5847 52.7203 36.6805 51.6836L51.3051 45.1335C52.1227 44.7917 52.6985 44.2107 53.0439 43.4133C53.2742 42.9577 53.3894 42.4906 53.3894 42.035C53.3894 40.2009 51.7657 38.5947 49.9002 38.5947C49.4396 38.5947 48.9675 38.7086 48.5068 38.9364L42.4728 41.5793C40.1466 42.6159 37.7169 43.1855 35.0453 43.1855C32.3737 43.1855 30.0476 42.7298 27.733 41.6932L26.5699 41.2375C24.6008 40.3148 22.3898 39.8592 20.3055 39.8592C14.1563 39.8592 8.58279 43.4133 6.14152 48.9269L2.5487 57.0832H2.53719Z" fill="#001985"/>
<path d="M4.86337 22.9654C2.89423 22.9654 1.25903 21.3592 1.25903 19.4113C1.25903 17.4633 2.88271 15.8457 4.86337 15.8457C6.84402 15.8457 8.45619 17.4519 8.45619 19.4113C8.45619 21.3706 6.83251 22.9654 4.86337 22.9654ZM4.86337 17.2241C3.70031 17.2241 2.6524 18.1468 2.6524 19.4113C2.6524 20.5618 3.58515 21.5871 4.86337 21.5871C6.02643 21.5871 7.07433 20.6643 7.07433 19.4113C7.07433 18.1582 6.14158 17.2241 4.86337 17.2241Z" fill="#001985"/>
<path d="M55.3701 17.2241C52.8137 17.2241 50.6143 15.1622 50.6143 12.5194C50.6143 9.87651 52.6986 7.81464 55.3701 7.81464C58.0417 7.81464 60.126 9.8879 60.126 12.5194C60.0109 15.1622 57.9151 17.2241 55.3701 17.2241ZM55.3701 9.30693C53.5162 9.30693 52.1228 10.7992 52.1228 12.5194C52.1228 14.2395 53.6313 15.7318 55.3701 15.7318C57.109 15.7318 58.6175 14.2395 58.6175 12.5194C58.6175 10.7992 57.109 9.30693 55.3701 9.30693Z" fill="#001985"/>
<path d="M28.2398 11.4713H27.5604C21.1809 11.4713 16.1716 16.4267 16.1716 22.7376C16.1716 29.0485 21.1809 34.0039 27.5604 34.0039H28.2398C34.1588 33.776 38.9492 28.8207 38.9492 22.7376C38.9492 16.6545 34.1703 11.927 28.2398 11.4713Z" fill="#CEA244"/>
<path d="M27.3301 20.9377V18.6822C26.4204 18.6822 25.9598 19.1379 25.9598 19.81C25.9598 20.0378 25.9598 20.2656 26.1901 20.4821C26.6507 20.7099 26.8695 20.9377 27.3301 20.9377ZM28.2398 26.5652C29.1495 26.5652 29.6102 26.1209 29.6102 25.6652C29.6102 25.4374 29.3798 25.221 29.1495 24.9931C28.9192 24.7653 28.4701 24.7653 28.2398 24.5375V26.5652ZM32.7999 25.221C32.7999 25.8931 32.5696 26.5766 32.3393 27.0208C32.109 27.4651 31.8787 27.9208 31.4296 28.1486C30.969 28.3764 30.5199 28.6043 30.0593 28.8207C29.5986 29.0485 28.9192 29.0485 28.4586 29.0485V31.0762H27.0883V29.0485C26.1786 29.0485 25.4991 28.8207 24.5779 28.5929C23.6682 28.365 22.9888 27.9208 22.2979 27.4651L23.6682 24.9817C23.6682 24.9817 23.8985 25.2096 24.1288 25.2096C24.3591 25.4374 24.5894 25.4374 25.0385 25.6538C25.2688 25.8817 25.7179 25.8817 26.1786 26.1095C26.6392 26.3373 27.0883 26.3373 27.5489 26.3373V23.854L26.6392 23.6261C25.9598 23.3983 25.4991 23.1705 25.0385 22.954C24.5779 22.7262 24.3591 22.4984 23.8985 22.2819C23.6682 22.0541 23.4379 21.6098 23.2191 21.382C22.9888 21.1542 22.9888 20.7099 22.9888 20.2542C22.9888 19.5821 22.9888 19.1265 23.2191 18.6708C23.4494 18.2265 23.6797 17.7709 24.1288 17.3152C24.5779 16.8595 25.0385 16.6431 25.4991 16.4153C25.9598 16.1874 26.6392 16.1874 27.0883 15.9596V14.1597H28.4586V15.9596C29.138 15.9596 30.0593 16.1874 30.7387 16.4153C31.4181 16.6431 32.109 16.8709 32.5581 17.3152L31.1878 19.7986L30.9575 19.5707C30.7272 19.5707 30.4968 19.3429 30.2781 19.1265C29.8174 19.3543 29.3683 19.1265 29.138 19.1265C28.9077 18.8986 28.4586 18.8986 28.2283 18.8986V21.382L28.9077 21.6098C29.5871 21.8377 30.0477 22.0655 30.5084 22.0655C30.969 22.2933 31.4181 22.5212 31.8787 22.7376C32.3393 22.9654 32.5581 23.4097 32.5581 23.8654C32.5581 24.0932 32.7884 24.7653 32.7884 25.221H32.7999Z" fill="#001985"/>
<path d="M27.5604 35.5873C20.5014 35.5873 14.8013 29.9485 14.8013 22.9654C14.8013 15.9824 20.5014 10.1157 27.5604 10.1157H28.2398C35.0685 10.5714 40.308 15.971 40.308 22.7376C40.308 29.5042 35.0685 35.1316 28.2398 35.3595C28.0095 35.3595 27.7792 35.5873 27.5604 35.5873ZM27.5604 13.0434C22.0905 13.0434 17.5419 17.5544 17.5419 22.954C17.5419 28.3536 22.1021 32.8647 27.5604 32.8647H28.0095C33.249 32.6369 37.3485 28.3536 37.3485 22.954C37.3485 17.5544 33.249 13.2598 28.0095 13.0434H27.5604Z" fill="#001985"/>
</g>
<defs>
<clipPath id="clip0_44_828">
<rect width="59.5579" height="63.2803" fill="white" transform="translate(0.568115)"/>
</clipPath>
</defs>
</svg>
