<svg width="26" height="26" viewBox="0 0 26 26" fill="none" xmlns="http://www.w3.org/2000/svg">
<path d="M11.5963 0.0748463C13.1493 -0.3134 14.5911 0.861416 14.696 2.38201C14.8139 4.09085 15.0688 5.65761 15.3927 6.59223C15.595 7.17584 16.1705 8.23665 17.0807 9.25387C17.9873 10.2669 19.1655 11.1693 20.545 11.5456C21.6361 11.8432 22.75 12.7886 22.75 14.1702V20.6719C22.75 22.0441 21.6412 23.0506 20.3971 23.1825C18.6592 23.3668 17.8558 23.8573 17.0366 24.3574L16.9592 24.4046C16.516 24.6747 16.0196 24.9721 15.3817 25.1918C14.7372 25.4137 13.9825 25.5458 13 25.5458H7.3125C5.78978 25.5458 4.7142 24.7692 4.16955 23.8161C3.903 23.3496 3.75781 22.831 3.75781 22.3339C3.75781 22.0863 3.7948 21.8267 3.88267 21.5791C3.55532 21.1529 3.26379 20.6409 3.08857 20.1152C2.91025 19.5803 2.80982 18.8778 3.08327 18.2493C2.9709 18.037 2.88682 17.8123 2.82423 17.5932C2.6988 17.1542 2.64063 16.6715 2.64063 16.2021C2.64063 15.7326 2.6988 15.2499 2.82423 14.8109C2.88029 14.6147 2.95359 14.4139 3.04902 14.2216C2.40776 13.2931 2.36907 12.2701 2.66893 11.405C3.00239 10.4429 3.77589 9.61823 4.61807 9.3375C5.99466 8.87864 7.54861 8.8892 8.70637 8.99446C8.96348 9.01783 9.20514 9.04629 9.42596 9.07651C8.66147 5.83004 9.16986 3.07453 9.52805 1.74852C9.75126 0.922216 10.4201 0.36891 11.1715 0.181048L11.5963 0.0748463ZM7.3125 23.9208H13C13.8299 23.9208 14.4025 23.8103 14.8526 23.6553C15.3093 23.498 15.675 23.2842 16.1136 23.0169L16.1785 22.9773C17.0801 22.4273 18.1259 21.7893 20.2258 21.5666C20.7666 21.5092 21.125 21.0946 21.125 20.6718V14.1702C21.125 13.7569 20.7579 13.288 20.1173 13.1133C18.3374 12.6277 16.9051 11.4945 15.8698 10.3375C14.8381 9.18458 14.1403 7.94076 13.8573 7.12436C13.4631 5.98686 13.1961 4.25144 13.0749 2.49384C13.0342 1.90509 12.4887 1.52674 11.9904 1.6513L11.5656 1.75751C11.3047 1.82275 11.1458 1.99109 11.0968 2.17227C10.7387 3.4979 10.2062 6.47006 11.3333 9.85135C11.4271 10.1327 11.3601 10.4428 11.1586 10.6603C10.9572 10.8778 10.653 10.9683 10.3654 10.8965L10.3612 10.8955L10.339 10.8902C10.3182 10.8853 10.286 10.8778 10.2433 10.8684C10.1577 10.8496 10.0302 10.8229 9.86865 10.7929C9.54487 10.733 9.08779 10.6608 8.55925 10.6128C7.48264 10.5149 6.19284 10.5255 5.13194 10.8791C4.84677 10.9741 4.40152 11.3682 4.20432 11.9372C4.0312 12.4366 4.06482 13.024 4.63703 13.5963L5.21155 14.1708L4.63703 14.7453C4.56788 14.8145 4.46754 14.9744 4.38671 15.2573C4.30901 15.5292 4.26563 15.859 4.26563 16.202C4.26563 16.5451 4.30901 16.8749 4.38671 17.1468C4.46754 17.4297 4.56788 17.5896 4.63703 17.6588L5.21155 18.2333L4.63703 18.8078C4.5606 18.8842 4.46123 19.0945 4.63018 19.6013C4.78892 20.0776 5.12182 20.5811 5.44952 20.9088L6.02405 21.4833L5.44953 22.0578C5.44101 22.0663 5.38281 22.1384 5.38281 22.3339C5.38281 22.5223 5.44076 22.7654 5.58045 23.0099C5.8483 23.4786 6.39772 23.9208 7.3125 23.9208Z" fill="#686868"/>
</svg>
