<svg width="14" height="14" viewBox="0 0 14 14" fill="none" xmlns="http://www.w3.org/2000/svg">
<path d="M12.1839 1.68399C12.6434 1.68399 13.0159 2.05649 13.0159 2.51599V9.17199C13.0159 9.63149 12.6434 10.004 12.1839 10.004H10.1039C9.58013 10.004 9.08694 10.2506 8.77269 10.6696L7.19189 12.7773L5.61109 10.6696C5.29684 10.2506 4.80365 10.004 4.27989 10.004H2.19989C1.74039 10.004 1.36789 9.63149 1.36789 9.17199V2.51599C1.36789 2.05649 1.74039 1.68399 2.19989 1.68399H12.1839ZM2.19989 0.85199C1.28089 0.85199 0.535889 1.59699 0.535889 2.51599V9.17199C0.535889 10.091 1.28089 10.836 2.19989 10.836H4.27989C4.54177 10.836 4.78836 10.9593 4.94549 11.1688L6.52629 13.2765C6.85909 13.7203 7.52469 13.7203 7.85749 13.2765L9.43829 11.1688C9.59542 10.9593 9.84201 10.836 10.1039 10.836H12.1839C13.1029 10.836 13.8479 10.091 13.8479 9.17199V2.51599C13.8479 1.59699 13.1029 0.85199 12.1839 0.85199H2.19989Z" fill="#686868"/>
<path d="M4.69589 5.84399C4.69589 6.30349 4.32339 6.67599 3.86389 6.67599C3.40439 6.67599 3.03189 6.30349 3.03189 5.84399C3.03189 5.38449 3.40439 5.01199 3.86389 5.01199C4.32339 5.01199 4.69589 5.38449 4.69589 5.84399Z" fill="#686868"/>
<path d="M8.02389 5.84399C8.02389 6.30349 7.65139 6.67599 7.19189 6.67599C6.73239 6.67599 6.35989 6.30349 6.35989 5.84399C6.35989 5.38449 6.73239 5.01199 7.19189 5.01199C7.65139 5.01199 8.02389 5.38449 8.02389 5.84399Z" fill="#686868"/>
<path d="M11.3519 5.84399C11.3519 6.30349 10.9794 6.67599 10.5199 6.67599C10.0604 6.67599 9.68789 6.30349 9.68789 5.84399C9.68789 5.38449 10.0604 5.01199 10.5199 5.01199C10.9794 5.01199 11.3519 5.38449 11.3519 5.84399Z" fill="#686868"/>
</svg>
