<svg width="57" height="58" viewBox="0 0 57 58" fill="none" xmlns="http://www.w3.org/2000/svg">
<path d="M50.126 1.35083C52.6514 1.35083 54.7005 3.36862 54.7005 5.85542C54.7005 8.34221 52.6514 10.36 50.126 10.36C47.6006 10.36 45.5515 8.34221 45.5515 5.85542C45.5515 3.36862 47.6006 1.35083 50.126 1.35083Z" fill="#CEA244"/>
<path d="M5.45505 50.1706C7.23833 50.1706 8.57856 51.5994 8.57856 53.2464C8.57856 55.0024 7.12757 56.3221 5.45505 56.3221C3.78254 56.3221 2.33154 54.8933 2.33154 53.2464C2.33154 51.5994 3.67177 50.1706 5.45505 50.1706Z" fill="#CEA244"/>
<path d="M55.0331 23.4483C55.5869 23.4483 56.041 23.8955 56.041 24.4408C56.041 24.9862 55.5869 25.4334 55.0331 25.4334C54.4793 25.4334 54.0251 24.9862 54.0251 24.4408C54.0251 23.8955 54.4793 23.4483 55.0331 23.4483Z" fill="#001985"/>
<path d="M54.2575 47.531C54.8113 47.531 55.2654 47.9782 55.2654 48.5235C55.2654 49.0689 54.8113 49.5161 54.2575 49.5161C53.7036 49.5161 53.2495 49.0689 53.2495 48.5235C53.2495 47.9782 53.7036 47.531 54.2575 47.531Z" fill="#001985"/>
<path d="M40.7443 39.2854C41.1098 39.2854 41.4088 39.5799 41.4088 39.9507C41.4088 40.3216 41.1098 40.6051 40.7443 40.6051C40.3787 40.6051 40.0686 40.3107 40.0686 39.9507C40.0686 39.5908 40.3677 39.2854 40.7443 39.2854Z" fill="#001985"/>
<path d="M38.2853 55.7767C38.8391 55.7767 39.2932 56.2239 39.2932 56.7692C39.2932 57.3146 38.8391 57.7617 38.2853 57.7617C37.7315 57.7617 37.2773 57.3146 37.2773 56.7692C37.2773 56.2239 37.7315 55.7767 38.2853 55.7767Z" fill="#001985"/>
<path d="M17.296 1.45996C17.8498 1.45996 18.304 1.90715 18.304 2.4525C18.304 2.99785 17.8498 3.44503 17.296 3.44503C16.7422 3.44503 16.2881 2.99785 16.2881 2.4525C16.2881 1.90715 16.7422 1.45996 17.296 1.45996Z" fill="#001985"/>
<path d="M2.66419 37.8564C3.21801 37.8564 3.67213 38.3036 3.67213 38.8489C3.67213 39.3943 3.21801 39.8415 2.66419 39.8415C2.11038 39.8415 1.65625 39.3943 1.65625 38.8489C1.65625 38.3036 2.11038 37.8564 2.66419 37.8564Z" fill="#001985"/>
<path d="M1.21326 8.27673C1.76708 8.27673 2.2212 8.72392 2.2212 9.26927C2.2212 9.81462 1.76708 10.2618 1.21326 10.2618C0.65945 10.2618 0.205322 9.81462 0.205322 9.26927C0.205322 8.72392 0.65945 8.27673 1.21326 8.27673Z" fill="#001985"/>
<path d="M28.1283 55.9949C28.0175 55.9949 27.796 55.9949 27.6852 55.8858L14.9586 46.9748C11.8351 44.7716 9.26539 41.6958 7.70363 38.2929C6.14188 34.7699 5.46622 30.9306 5.80959 27.1895L6.92829 15.2027C6.92829 14.8755 7.26058 14.5483 7.59287 14.5483C13.7291 14.4393 18.8685 11.7998 22.0031 9.59655C25.47 7.1752 27.4748 4.75385 27.4748 4.75385C27.5856 4.64478 27.8071 4.53571 28.0286 4.53571C28.2501 4.53571 28.4717 4.64478 28.5824 4.75385C28.5824 4.75385 30.7091 7.06613 34.1649 9.36751C37.3991 11.4616 42.5385 14.1011 48.6859 14.2102C49.0181 14.2102 49.3504 14.5374 49.3504 14.8646L50.2476 27.1786C50.5799 31.0288 49.9153 34.7699 48.3536 38.282C46.7918 41.8049 44.2221 44.7716 41.0986 46.9639L28.372 55.8749C28.4827 55.984 28.2612 55.984 28.1504 55.984L28.1283 55.9949ZM8.35713 15.8572L7.23843 27.1786C6.57385 34.4318 9.80812 41.4777 15.8336 45.7642L28.1172 54.457L40.4008 45.7642C46.3155 41.4777 49.6716 34.4427 48.996 27.1786L48.0988 15.5191C41.8407 15.3009 36.7124 12.6614 33.4671 10.4582C30.7866 8.70218 29.0033 7.04432 28.1061 6.17176C27.3197 7.05522 25.5364 8.81125 22.856 10.6763C19.6217 12.8796 14.5931 15.6281 8.33498 15.8463L8.35713 15.8572Z" fill="#001985"/>
<path d="M10.1405 28.4003C10.0666 28.4003 10.0666 28.4003 10.1405 28.4003C9.69741 28.4003 9.35404 28.0731 9.4648 27.6259L10.362 17.6242C10.362 17.297 10.6943 16.9697 11.0266 16.9697C20.8512 16.7516 27.5524 8.9422 27.5524 8.83313C27.6631 8.72406 27.8847 8.61499 28.1062 8.61499C28.3277 8.61499 28.5492 8.72406 28.66 8.83313C28.7708 8.9422 35.5827 16.5335 45.4073 16.7516C45.7396 16.7516 46.0719 17.0788 46.0719 17.406L46.8583 27.7459C46.8583 28.0731 46.6368 28.4003 46.1937 28.5203C45.8615 28.5203 45.5292 28.3021 45.4073 27.8658L44.7427 18.1913C39.4926 17.9732 35.2504 15.77 32.4592 14.014C30.3325 12.5851 28.8815 11.2654 28.1062 10.491C27.3198 11.2654 25.8688 12.6942 23.864 14.123C21.1835 15.9881 16.9413 18.1913 11.6911 18.5185L10.794 27.8658C10.794 28.084 10.4617 28.4112 10.1294 28.4112L10.1405 28.4003Z" fill="#001985"/>
<path d="M5.45541 57.0965C3.32877 57.0965 1.65625 55.4495 1.65625 53.3554C1.65625 51.2612 3.32877 49.6143 5.45541 49.6143C7.58206 49.6143 9.25458 51.2612 9.25458 53.3554C9.25458 55.4495 7.58206 57.0965 5.45541 57.0965ZM5.45541 50.9449C4.11518 50.9449 2.99648 52.0465 2.99648 53.3663C2.99648 54.686 4.11518 55.7876 5.45541 55.7876C6.79564 55.7876 7.91435 54.686 7.91435 53.3663C7.91435 51.9374 6.79564 50.9449 5.45541 50.9449Z" fill="#001985"/>
<path d="M50.1264 11.0254C47.2244 11.0254 44.8762 8.71309 44.8762 5.85546C44.8762 2.99783 47.2244 0.685547 50.1264 0.685547C53.0284 0.685547 55.3765 2.99783 55.3765 5.85546C55.3765 8.71309 53.0284 11.0254 50.1264 11.0254ZM50.1264 2.11436C47.9997 2.11436 46.3272 3.76132 46.3272 5.85546C46.3272 7.9496 47.9997 9.59656 50.1264 9.59656C52.253 9.59656 53.9255 7.9496 53.9255 5.85546C53.9255 3.76132 52.253 2.11436 50.1264 2.11436Z" fill="#001985"/>
<path d="M40.1019 22.9466C40.1019 24.19 36.3914 26.0878 36.779 28.4001C37.8867 34.9443 31.0526 40.0488 27.774 39.1653C23.2217 37.9437 19.2231 35.4024 19.2231 30.7451C19.2231 26.0878 23.0445 22.3249 27.774 22.3249C29.7235 22.3249 32.3707 23.4156 34.5638 22.9357C37.6873 22.2485 40.1019 20.198 40.1019 22.9357V22.9466Z" fill="#CEA244"/>
<path d="M27.652 40.638C21.9034 40.638 17.3511 36.1443 17.3511 30.4945C17.3511 24.8446 21.9145 20.351 27.652 20.351C30.3546 20.351 32.8911 21.3544 34.9181 23.3395C35.2503 23.6776 35.2503 24.3429 34.9181 24.8337C34.5747 25.3354 33.899 25.1718 33.4006 24.8337C31.8832 23.3395 29.8562 22.4996 27.652 22.4996C23.0886 22.4996 19.5442 26.1644 19.5442 30.4836C19.5442 34.8027 23.2547 38.4675 27.652 38.4675C32.0493 38.4675 35.7598 34.8027 35.7598 30.4836C35.7598 29.6546 35.5937 28.8148 35.4165 27.9858C35.2503 27.4841 35.5826 26.8188 36.0921 26.6552C36.6016 26.4916 37.2773 26.8188 37.4434 27.3205C37.7868 28.324 37.953 29.3165 37.953 30.4836C37.953 35.9698 33.3895 40.6271 27.652 40.6271V40.638Z" fill="#001985"/>
<path d="M28.4938 36.4824C28.1505 36.4824 27.9843 36.3188 27.8182 36.1552L23.4209 31.8251C22.7452 31.1598 22.5791 30.4945 22.5791 29.6655C22.5791 28.8366 22.9225 27.9968 23.4209 27.5059C24.0965 26.8406 24.7722 26.677 25.614 26.677C26.4558 26.677 27.3087 27.0042 27.8071 27.5059L28.4828 28.1713L35.9149 20.8527C36.5906 20.1873 37.2662 20.0237 38.108 20.0237C38.9498 20.0237 39.8027 20.351 40.3011 20.8527C41.4863 22.0197 41.4863 24.0157 40.3011 25.1828L29.3246 36.1661C29.1584 36.3297 28.815 36.4933 28.4828 36.4933L28.4938 36.4824ZM25.6251 28.4985C25.2928 28.4985 25.1156 28.6621 24.9494 28.8257C24.7833 28.9893 24.6171 29.3274 24.6171 29.491C24.6171 29.8182 24.7833 29.9927 24.9494 30.1563L28.6711 33.8211L38.972 23.6776C39.3154 23.3395 39.3154 22.6741 38.972 22.1833C38.8058 22.0197 38.4625 21.8561 38.2963 21.8561C38.1302 21.8561 37.7868 22.0197 37.6207 22.1833L29.3467 30.3309C29.1806 30.4945 28.8372 30.669 28.6711 30.669C28.3277 30.669 28.1615 30.5054 27.9954 30.3309L26.478 28.8366C26.1346 28.673 25.8023 28.5094 25.6362 28.5094L25.6251 28.4985Z" fill="#001985"/>
</svg>
