<svg width="28" height="28" viewBox="0 0 28 28" fill="none" xmlns="http://www.w3.org/2000/svg">
<path d="M5.27204 2.30059C5.59599 1.92265 6.06891 1.70514 6.56668 1.70514H21.1287C21.6265 1.70514 22.0994 1.92265 22.4234 2.30059L26.8731 7.49196C27.2705 7.95552 27.4889 8.54594 27.4889 9.1565V9.59144C27.4889 11.828 25.6758 13.6412 23.4392 13.6412C22.1396 13.6412 20.983 13.029 20.242 12.0774C19.501 13.029 18.3444 13.6412 17.0449 13.6412C15.7453 13.6412 14.5887 13.029 13.8477 12.0774C13.1067 13.029 11.9501 13.6412 10.6506 13.6412C9.35101 13.6412 8.19444 13.029 7.45342 12.0774C6.7124 13.029 5.55582 13.6412 4.25626 13.6412C2.01967 13.6412 0.206543 11.828 0.206543 9.59144V9.1565C0.206543 8.54594 0.424952 7.95552 0.822297 7.49196L5.27204 2.30059ZM8.30599 9.59144C8.30599 10.8863 9.35569 11.936 10.6506 11.936C11.9454 11.936 12.9951 10.8863 12.9951 9.59144C12.9951 9.12058 13.3768 8.73887 13.8477 8.73887C14.3186 8.73887 14.7003 9.12058 14.7003 9.59144C14.7003 10.8863 15.75 11.936 17.0449 11.936C18.3397 11.936 19.3894 10.8863 19.3894 9.59144C19.3894 9.12058 19.7711 8.73887 20.242 8.73887C20.7129 8.73887 21.0946 9.12058 21.0946 9.59144C21.0946 10.8863 22.1443 11.936 23.4392 11.936C24.734 11.936 25.7837 10.8863 25.7837 9.59144V9.1565C25.7837 8.95298 25.7109 8.75617 25.5785 8.60165L21.1287 3.41029H6.56668L2.11694 8.60165C1.98449 8.75617 1.91169 8.95298 1.91169 9.1565V9.59144C1.91169 10.8863 2.96139 11.936 4.25626 11.936C5.55114 11.936 6.60084 10.8863 6.60084 9.59144C6.60084 9.12058 6.98255 8.73887 7.45341 8.73887C7.92428 8.73887 8.30599 9.12058 8.30599 9.59144ZM2.76426 14.4937C3.23512 14.4937 3.61683 14.8754 3.61683 15.3463V25.5772H5.32198V17.0515C5.32198 16.1097 6.0854 15.3463 7.02713 15.3463H12.1426C13.0843 15.3463 13.8477 16.1097 13.8477 17.0515V25.5772H24.0786V15.3463C24.0786 14.8754 24.4603 14.4937 24.9312 14.4937C25.402 14.4937 25.7837 14.8754 25.7837 15.3463V25.5772H26.6363C27.1072 25.5772 27.4889 25.9589 27.4889 26.4298C27.4889 26.9006 27.1072 27.2823 26.6363 27.2823H1.05912C0.588253 27.2823 0.206543 26.9006 0.206543 26.4298C0.206543 25.9589 0.588253 25.5772 1.05912 25.5772H1.91169V15.3463C1.91169 14.8754 2.2934 14.4937 2.76426 14.4937ZM7.02713 25.5772H12.1426V17.0515H7.02713V25.5772ZM15.5529 17.0515C15.5529 16.1097 16.3163 15.3463 17.258 15.3463H20.6683C21.61 15.3463 22.3734 16.1097 22.3734 17.0515V22.1669C22.3734 23.1086 21.61 23.872 20.6683 23.872H17.258C16.3163 23.872 15.5529 23.1086 15.5529 22.1669V17.0515ZM20.6683 17.0515H17.258V22.1669H20.6683V17.0515Z" fill="#001985"/>
</svg>
