<svg width="15" height="15" viewBox="0 0 15 15" fill="none" xmlns="http://www.w3.org/2000/svg">
<path d="M3.3528 13.2078C3.28807 13.5768 3.65213 13.8656 3.97365 13.7003L7.62548 11.8234L11.2773 13.7003C11.5988 13.8656 11.9629 13.5768 11.8982 13.2078L11.2078 9.27287L14.1384 6.48014C14.4123 6.21914 14.2705 5.74194 13.9036 5.68982L9.82808 5.11086L8.01089 1.51117C7.8472 1.18691 7.40377 1.18691 7.24007 1.51117L5.42288 5.11086L1.34735 5.68982C0.98045 5.74194 0.838677 6.21914 1.11256 6.48014L4.04314 9.27287L3.3528 13.2078ZM7.43343 10.9047L4.36689 12.4808L4.94451 9.18837C4.97174 9.03316 4.92054 8.87423 4.8091 8.76804L2.39061 6.46332L5.76213 5.98436C5.90151 5.96456 6.0232 5.87555 6.08895 5.74531L7.62548 2.70157L9.16202 5.74531C9.22776 5.87555 9.34946 5.96456 9.48883 5.98436L12.8604 6.46332L10.4419 8.76804C10.3304 8.87423 10.2792 9.03316 10.3065 9.18837L10.8841 12.4808L7.81753 10.9047C7.6964 10.8425 7.55457 10.8425 7.43343 10.9047Z" fill="#686868"/>
</svg>
