<svg width="54" height="58" viewBox="0 0 54 58" fill="none" xmlns="http://www.w3.org/2000/svg">
<path d="M50.3962 43.4984H2.68408V46.524H50.3962V43.4984Z" fill="white"/>
<path d="M50.3962 46.5338H2.68408V56.9005H50.3962V46.5338Z" fill="#CEA244"/>
<path d="M52.0253 37.5731V43.3916H49.1879H4.43529H1.5979V37.5731H3.3349H15.9031H20.4866H24.7972H45.9777H50.2883H52.0253Z" fill="#CEA244"/>
<path d="M17.3567 30.6879V34.3051H14.9129H3.96436V30.6879H14.9129H17.3567Z" fill="#CEA244"/>
<path d="M14.913 34.3052V38.0194H1.51099V34.3052H3.96447H14.913Z" fill="white"/>
<path d="M14.913 26.9737V30.6879H3.96447H1.51099V26.9737H14.913Z" fill="white"/>
<path d="M50.4059 17.7805C51.7733 17.7805 52.8497 18.8569 52.8497 20.2242C52.8497 21.5916 51.7733 22.668 50.4059 22.668C49.0386 22.668 47.9622 21.5916 47.9622 20.2242C47.9622 18.8569 49.0386 17.7805 50.4059 17.7805Z" fill="#CEA244"/>
<path d="M24.3969 38.0192H19.8972V36.2639C19.8972 34.9935 20.2851 33.2286 20.9736 31.7642C21.6622 30.2999 22.6319 29.0295 23.9023 28.438L28.5959 26.479C29.3814 26.0911 30.1573 25.6935 30.8458 25.1117L33.0956 30.1932L34.463 28.438V32.3461C34.463 33.0346 35.0448 33.6165 35.7334 33.6165C36.1213 33.6165 36.4219 33.5195 36.6158 33.2286C36.8098 32.9376 37.0037 32.6467 37.0037 32.3461V28.438L38.2741 30.0962L40.6209 25.0147C41.3095 25.5966 42.0853 26.0911 42.9678 26.3821L47.6614 28.341C50.1052 29.4174 51.6665 33.5195 51.6665 36.1669V37.9319H24.3872V38.0289L24.3969 38.0192Z" fill="white"/>
<path d="M43.9474 3.21472C44.4323 3.21472 44.8299 3.61232 44.8299 4.0972C44.8299 4.58208 44.4323 4.97968 43.9474 4.97968C43.4625 4.97968 43.0649 4.58208 43.0649 4.0972C43.0649 3.61232 43.4625 3.21472 43.9474 3.21472Z" fill="#001985"/>
<path d="M43.7533 13.4844V14.0662C43.7533 14.7547 43.1618 15.4336 42.386 15.4336H41.998V12.2043H42.386C43.1715 12.2043 43.7533 12.7861 43.7533 13.4747V13.4844Z" fill="white"/>
<path d="M40.621 25.0149L38.2742 30.1934L37.0038 28.4381L35.7334 26.6828L38.2742 24.1421L39.0597 23.3566C39.5445 24.0451 39.9421 24.433 40.524 24.9179C40.524 25.0149 40.621 25.0149 40.621 25.0149Z" fill="#CEA244"/>
<path d="M38.2742 21.9891V24.142L35.7334 26.6828L33.0957 24.045V21.9891C33.7842 22.2801 34.56 22.474 35.3455 22.474H36.0341C36.8196 22.377 37.5954 22.2801 38.2839 21.9891H38.2742Z" fill="white"/>
<path d="M35.7335 26.6828L37.0039 28.4381V32.3462C37.0039 32.7341 36.9069 33.0347 36.616 33.2287C36.422 33.4226 36.0341 33.6166 35.7335 33.6166C35.045 33.6166 34.4631 33.0347 34.4631 32.3462V28.4381L35.7335 26.6828Z" fill="#CEA244"/>
<path d="M35.7336 26.6828L34.3662 28.3411L32.9989 30.106L30.749 25.0245C31.4376 24.5396 31.8255 24.045 32.4073 23.3662L33.0958 24.0547L35.7336 26.6925V26.6828Z" fill="#CEA244"/>
<path d="M29.3817 12.214V15.4433H28.9938C28.3053 15.4433 27.6265 14.8517 27.6265 14.0759V13.4941C27.6265 12.8055 28.2083 12.1267 28.9938 12.1267L29.3817 12.2237V12.214Z" fill="white"/>
<path d="M23.8056 14.1632C24.2905 14.1632 24.6881 14.5608 24.6881 15.0457C24.6881 15.5306 24.2905 15.9282 23.8056 15.9282C23.3207 15.9282 22.9231 15.5306 22.9231 15.0457C22.9231 14.5608 23.3207 14.1632 23.8056 14.1632Z" fill="#001985"/>
<path d="M21.6528 19.0509C23.3111 19.0509 24.6882 20.4183 24.6882 22.0862C24.6882 23.7542 23.3208 25.1216 21.6528 25.1216C19.9849 25.1216 18.6272 23.7542 18.6272 22.0862C18.6272 20.4183 19.9946 19.0509 21.6528 19.0509Z" fill="#CEA244"/>
<path d="M19.8007 38.6108H14.9132C14.6222 38.6108 14.3313 38.3199 14.3313 38.0193C14.3313 37.7187 14.6222 37.4374 14.9132 37.4374H19.8007C20.0917 37.4374 20.3826 37.7284 20.3826 38.0193C20.3826 38.3102 20.1886 38.6108 19.8007 38.6108Z" fill="#001985"/>
<path d="M50.4062 57.5793H2.68439C2.39347 57.5793 2.10254 57.2884 2.10254 56.9974V43.5081C2.10254 43.2172 2.39347 42.9166 2.68439 42.9166H50.3965C50.6874 42.9166 50.988 43.2075 50.988 43.5081V56.9974C50.988 57.2884 50.6971 57.5793 50.3965 57.5793H50.4062ZM3.37292 56.3089H49.8146V44.09H3.37292V56.3089Z" fill="#001985"/>
<path d="M38.2742 24.7238C37.9833 24.7238 37.6924 24.4329 37.6924 24.1323V21.9794C37.6924 21.6885 37.9833 21.3879 38.2742 21.3879C38.5652 21.3879 38.8658 21.6788 38.8658 21.9794V24.1323C38.8658 24.4232 38.5749 24.7238 38.2742 24.7238Z" fill="#001985"/>
<path d="M33.0958 24.6269C32.8048 24.6269 32.5139 24.3359 32.5139 24.0353V21.9794C32.5139 21.6885 32.8048 21.3879 33.0958 21.3879C33.3867 21.3879 33.6873 21.6788 33.6873 21.9794V24.0353C33.6873 24.3262 33.3964 24.6269 33.0958 24.6269Z" fill="#001985"/>
<path d="M35.7336 34.2081C34.6571 34.2081 33.7747 33.3256 33.7747 32.2492V28.3411C33.7747 28.0501 34.0656 27.7592 34.3662 27.7592C34.6668 27.7592 34.9481 28.0501 34.9481 28.3411V32.2492C34.9481 32.6371 35.239 32.9377 35.6366 32.9377C35.8305 32.9377 36.0245 32.8407 36.1215 32.7438C36.2184 32.6468 36.3154 32.4528 36.3154 32.2589V28.3508C36.3154 28.0598 36.6064 27.7689 36.907 27.7689C37.2076 27.7689 37.4888 28.0598 37.4888 28.3508V32.2589C37.4888 32.7438 37.2949 33.2383 36.907 33.6263C36.713 34.0142 36.2184 34.2081 35.7336 34.2081Z" fill="#001985"/>
<path d="M51.5793 38.6107H19.8003C19.5094 38.6107 19.2087 38.3198 19.2087 38.0192V36.2639C19.2087 34.7996 19.5966 33.0346 20.3821 31.4733C21.2646 29.7084 22.3411 28.438 23.6114 27.8561L28.3051 25.8972C29.0906 25.6063 29.7694 25.1117 30.4579 24.6268C31.0398 24.142 31.4374 23.7444 32.0192 23.0655C32.2132 22.7746 32.6011 22.7746 32.9017 22.9685C33.1926 23.1625 33.1926 23.5601 32.9987 23.851C32.4168 24.6365 31.9223 25.1214 31.2434 25.6063C30.4579 26.1978 29.6821 26.6827 28.7996 27.0706L24.106 29.0295C23.1266 29.4174 22.2441 30.4939 21.4683 32.0649C20.7797 33.4322 20.3918 35.1002 20.3918 36.2736V37.447H50.9974V36.2736C50.9974 33.6359 49.4361 29.9217 47.3802 29.0392L42.6866 27.0803C41.8041 26.6924 41.0283 26.1978 40.2428 25.616L40.1458 25.519C39.5543 25.0341 39.0694 24.5396 38.5845 23.8607C38.3906 23.5698 38.4875 23.1722 38.6815 22.9782C38.9724 22.7843 39.37 22.8813 39.564 23.0752C40.0488 23.6571 40.4464 24.0547 40.9313 24.5396L41.0283 24.6365C41.7168 25.1214 42.3957 25.616 43.1812 25.9069L47.8748 27.8658C50.7065 29.0392 52.2775 33.5389 52.2775 36.1766V37.9416C52.2775 38.3295 51.9866 38.6301 51.589 38.6301L51.5793 38.6107Z" fill="#001985"/>
<path d="M46.9827 38.6108C46.6917 38.6108 46.3911 38.3199 46.3911 38.0193V33.7136C46.3911 33.4226 46.682 33.1317 46.9827 33.1317C47.2833 33.1317 47.5645 33.4226 47.5645 33.7136V38.0193C47.5645 38.3102 47.2736 38.6108 46.9827 38.6108Z" fill="#001985"/>
<path d="M24.3967 38.6108C24.1058 38.6108 23.8052 38.3199 23.8052 38.0193V33.7136C23.8052 33.4226 24.0961 33.1317 24.3967 33.1317C24.6974 33.1317 24.9786 33.4226 24.9786 33.7136V38.0193C24.9786 38.3102 24.6877 38.6108 24.3967 38.6108Z" fill="#001985"/>
<path d="M38.2739 30.7849C38.0799 30.7849 37.886 30.6879 37.789 30.494L35.2482 26.9737C35.0543 26.7798 35.0543 26.3822 35.3452 26.1882L38.6715 22.862C38.8654 22.668 39.263 22.668 39.5539 22.862C39.7479 23.0559 39.7479 23.4535 39.5539 23.7444L36.6253 26.6731L38.2836 28.9229L40.2425 24.7142C40.3394 24.4233 40.7273 24.3263 41.028 24.4233C41.3189 24.5202 41.4159 24.9081 41.3189 25.2088L38.8751 30.3873C38.7781 30.5812 38.5842 30.7752 38.2836 30.7752L38.2739 30.7849Z" fill="#001985"/>
<path d="M33.0957 30.7849C33.031 30.7849 33.031 30.7849 33.0957 30.7849C32.8047 30.7849 32.6108 30.5909 32.5138 30.397L30.264 25.3154C30.264 25.2185 30.167 25.1215 30.167 25.0245C30.167 24.7336 30.4579 24.433 30.7585 24.433C31.0592 24.433 31.2434 24.6269 31.3404 24.8209L33.2023 28.9229L34.8606 26.6731L31.9223 23.7444C31.7283 23.5505 31.7283 23.1626 31.9223 22.862C32.1162 22.668 32.5138 22.668 32.8047 22.862L36.131 26.1882C36.325 26.3822 36.325 26.7701 36.228 26.9737L33.5902 30.494C33.3963 30.6879 33.2023 30.7849 33.1054 30.7849H33.0957Z" fill="#001985"/>
<path d="M42.3863 16.0252H41.9984C41.7074 16.0252 41.4165 15.7342 41.4165 15.4433C41.4165 15.1524 41.7074 14.8517 41.9984 14.8517H42.3863C42.7742 14.8517 43.0748 14.5608 43.0748 14.1632V13.5814C43.0748 13.1935 42.7839 12.8928 42.3863 12.8928H41.9984C41.7074 12.8928 41.4165 12.6019 41.4165 12.311C41.4165 12.0201 41.7074 11.7291 41.9984 11.7291H42.3863C43.4627 11.7291 44.3452 12.6116 44.3452 13.688V14.2796C44.3452 15.259 43.4627 16.0349 42.3863 16.0349V16.0252Z" fill="#001985"/>
<path d="M29.3815 16.0252H28.9936C27.9171 16.0252 27.0347 15.1427 27.0347 14.0663V13.4844C27.0347 12.408 27.9171 11.5255 28.9936 11.5255H29.3815C29.6724 11.5255 29.973 11.8164 29.973 12.1074C29.973 12.3983 29.6821 12.6892 29.3815 12.6892H28.9936C28.6057 12.6892 28.3051 12.9801 28.3051 13.3778V13.9693C28.3051 14.3572 28.596 14.6578 28.9936 14.6578H29.3815C29.6724 14.6578 29.973 14.9488 29.973 15.2397C29.973 15.8312 29.7791 16.0252 29.3815 16.0252Z" fill="#001985"/>
<path d="M36.0342 23.0656H35.3457C34.4632 23.0656 33.5904 22.8716 32.8049 22.5807C30.3611 21.6012 28.7998 19.1574 28.7998 16.5197V11.8261C28.7998 8.20887 31.7285 5.27051 35.3457 5.27051H36.0342C39.6514 5.27051 42.5801 8.19918 42.5801 11.8261V16.4227C42.5801 17.2082 42.3861 18.081 42.0952 18.8665C41.4067 20.5248 40.1363 21.9019 38.478 22.5807C37.6925 22.8716 36.9167 23.0656 36.0342 23.0656ZM35.3457 6.54089C32.417 6.54089 29.9732 8.98468 29.9732 11.9133V16.51C29.9732 18.6629 31.2436 20.6121 33.2995 21.3976C33.988 21.6885 34.6668 21.7855 35.3554 21.7855H36.0439C36.7227 21.7855 37.4113 21.6885 38.0028 21.3976C39.3702 20.8157 40.4466 19.7393 40.9315 18.3622C41.1254 17.7804 41.3194 17.0919 41.3194 16.4033V11.8067C41.3194 8.87801 38.8756 6.42452 35.9372 6.42452L35.3554 6.5215L35.3457 6.54089Z" fill="#001985"/>
<path d="M36.325 19.6424C36.0341 19.6424 35.7432 19.4484 35.7432 19.0508C35.7432 18.7599 35.9371 18.469 36.325 18.3623L43.6564 17.7804V17.3925C43.6564 17.1016 43.9473 16.8107 44.2479 16.8107C44.5486 16.8107 44.8298 17.1016 44.8298 17.3925V18.372C44.8298 18.6629 44.5389 18.9635 44.2479 18.9635L36.325 19.6521V19.6424Z" fill="#001985"/>
<path d="M14.9129 38.6109H1.51081C1.21988 38.6109 0.928955 38.32 0.928955 38.0193V34.3052C0.928955 34.0142 1.21988 33.7136 1.51081 33.7136H3.9546C4.24553 33.7136 4.54615 34.0046 4.54615 34.3052C4.54615 34.6058 4.25522 34.887 3.9546 34.887H2.09266V37.3308H14.3116V34.3052C14.3116 34.0142 14.6025 33.7136 14.8935 33.7136C15.1844 33.7136 15.485 34.0046 15.485 34.3052V38.0193C15.582 38.3103 15.2911 38.6109 14.8935 38.6109H14.9129Z" fill="#001985"/>
<path d="M14.9129 31.2794C14.6219 31.2794 14.331 30.9885 14.331 30.6976V27.6622H2.10236V30.106H3.9643C4.25522 30.106 4.55585 30.3969 4.55585 30.6879C4.55585 30.9788 4.26492 31.2697 3.9643 31.2697H1.51081C1.21988 31.2697 0.928955 30.9788 0.928955 30.6879V26.9737C0.928955 26.6828 1.21988 26.3821 1.51081 26.3821H15.0001C15.2911 26.3821 15.582 26.6731 15.582 26.9737V30.6879C15.582 30.9788 15.2911 31.2697 14.8935 31.2697L14.9129 31.2794Z" fill="#001985"/>
<path d="M17.3565 34.8966H3.96418C3.67325 34.8966 3.38232 34.6057 3.38232 34.3148V30.6006C3.38232 30.3097 3.67325 30.0187 3.96418 30.0187H17.4535C17.7444 30.0187 18.0354 30.3097 18.0354 30.6006V34.3148C18.0354 34.6057 17.7444 34.8966 17.3468 34.8966H17.3565ZM4.54603 33.7232H16.765V31.2794H4.54603V33.7232Z" fill="#001985"/>
<path d="M50.4063 23.3565C48.748 23.3565 47.3806 21.9892 47.3806 20.3212C47.3806 18.6532 48.748 17.2858 50.4063 17.2858C52.0645 17.2858 53.4416 18.6532 53.4416 20.3212C53.4416 21.9892 52.0742 23.3565 50.4063 23.3565ZM50.4063 18.4689C49.4268 18.4689 48.5443 19.2544 48.5443 20.3309C48.5443 21.3103 49.3298 22.1928 50.4063 22.1928C51.3857 22.1928 52.2682 21.4073 52.2682 20.3309C52.2682 19.2544 51.3857 18.4689 50.4063 18.4689Z" fill="#001985"/>
<path d="M17.473 1.37219C19.2961 1.37219 20.7314 2.80743 20.7314 4.63058C20.7314 6.45372 19.2961 7.88897 17.473 7.88897C15.6498 7.88897 14.2146 6.45372 14.2146 4.63058C14.2146 2.80743 15.6498 1.37219 17.473 1.37219Z" fill="#CEA244"/>
<path d="M17.4731 8.81013C15.2523 8.81013 13.4292 6.98699 13.4292 4.76624C13.4292 2.5455 15.2523 0.722351 17.4731 0.722351C19.6938 0.722351 21.517 2.5455 21.517 4.76624C21.517 6.98699 19.6938 8.81013 17.4731 8.81013ZM17.4731 2.28366C16.1736 2.28366 14.9905 3.331 14.9905 4.76624C14.9905 6.07541 16.0378 7.24882 17.4731 7.24882C18.7823 7.24882 19.9557 6.20148 19.9557 4.76624C19.9557 3.331 18.7823 2.28366 17.4731 2.28366Z" fill="#001985"/>
<path d="M21.6526 25.8003C19.5968 25.8003 17.9385 24.142 17.9385 22.0861C17.9385 20.0302 19.5968 18.3719 21.6526 18.3719C23.7085 18.3719 25.3668 20.0302 25.3668 22.0861C25.3668 24.142 23.7085 25.8003 21.6526 25.8003ZM21.6526 19.6423C20.2853 19.6423 19.2089 20.7188 19.2089 22.0861C19.2089 23.4535 20.2853 24.5299 21.6526 24.5299C23.02 24.5299 24.0964 23.4535 24.0964 22.0861C24.0964 20.7188 23.02 19.6423 21.6526 19.6423Z" fill="#001985"/>
<path d="M50.4062 47.1157H2.68439C2.39347 47.1157 2.10254 46.8248 2.10254 46.5242C2.10254 46.2236 2.39347 45.9423 2.68439 45.9423H50.3965C50.6874 45.9423 50.988 46.2332 50.988 46.5242C50.988 46.8151 50.6971 47.1157 50.3965 47.1157H50.4062Z" fill="#001985"/>
</svg>
